<svg width="380" height="210" xmlns="http://www.w3.org/2000/svg" xmlns:svg="http://www.w3.org/2000/svg">
 <!-- Created with SVG-edit - http://svg-edit.googlecode.com/ -->
 <g>
  <title>Layer 1</title>
  <path stroke="#7f0000" id="svg_9" d="m217.60272,9.32895c47.44912,0.44444 140.45779,6.05555 142.34736,11.33333c0.94478,2.63889 6.53475,32.40278 6.29855,70.25c-0.23619,37.84722 -1.25971,90.77777 -6.29855,93.75c-5.03885,2.97223 -82.16116,8.88889 -142.76726,10.66667c-56.87485,0.75932 -153.85829,1.26869 -166.76827,-0.10527c-35.45219,-11.90027 -40.5344,-61.99966 -40.66426,-90.17887c-0.12985,-28.17921 11.7572,-94.68351 41.26096,-95.76849l166.59147,0.05263l0,0z" stroke-linecap="null" stroke-linejoin="null" stroke-dasharray="null" stroke-width="10" fill="#FF0000"/>
  <line id="svg_21" y2="71" x2="342.5" y1="67.5" x1="274" stroke-width="10" stroke="#bf0000"/>
  <line id="svg_26" y2="128.5" x2="343" y1="133.5" x1="273.5" stroke-width="10" stroke="#bf0000"/>
  <path fill="#333333" stroke="#000000" stroke-width="10" stroke-dasharray="null" stroke-linejoin="null" stroke-linecap="null" stroke-opacity="0" d="m127.99802,23.21712l114.50198,0l-30,16.43426l-75,-0.49801l-9.50198,-15.93625z" id="svg_5"/>
  <path fill="#333333" stroke-width="0" stroke-dasharray="null" stroke-linejoin="null" stroke-linecap="null" d="m214.5,47.5l44.5,-21.5l0,154l-44.5,-22.5l0,-110z" id="svg_7" stroke="#232323"/>
  <path fill="#333333" stroke-width="10" stroke-dasharray="null" stroke-linejoin="null" stroke-linecap="null" stroke-opacity="0" d="m126.99802,182.21715l114.50198,0l-30,-17.0658l-75,0.51715l-9.50198,16.54865z" id="svg_8" stroke="#000000"/>
  <path fill="#333333" stroke-width="0" stroke-dasharray="null" stroke-linejoin="null" stroke-linecap="null" d="m131.5,47.5l-13.5,-21.5l0,154l13.5,-22.5l0,-110z" id="svg_10" stroke="#232323"/>
 </g>
</svg>
